<mxfile host="app.diagrams.net" modified="2023-11-15T06:40:03.282Z" agent="Mozilla/5.0 (Windows NT 10.0; Win64; x64) AppleWebKit/537.36 (KHTML, like Gecko) Chrome/116.0.0.0 Safari/537.36" etag="KDZjvmuZvpDXjjAAl1Wj" version="22.1.1" type="device">
  <diagram name="Trang-1" id="8r1FikqzXt4qEYaamd7T">
    <mxGraphModel dx="1246" dy="559" grid="0" gridSize="10" guides="1" tooltips="1" connect="1" arrows="0" fold="1" page="1" pageScale="1" pageWidth="1169" pageHeight="827" background="#ffffff" math="0" shadow="0">
      <root>
        <mxCell id="0" />
        <mxCell id="1" parent="0" />
        <mxCell id="ZVCgykRuLSJEn90-AZET-1" value="Khách hàng" style="shape=umlActor;verticalLabelPosition=bottom;verticalAlign=top;html=1;outlineConnect=0;" parent="1" vertex="1">
          <mxGeometry x="63" y="167" width="30" height="60" as="geometry" />
        </mxCell>
        <mxCell id="ZVCgykRuLSJEn90-AZET-12" value="" style="endArrow=none;html=1;rounded=0;" parent="1" source="ZVCgykRuLSJEn90-AZET-1" target="LwQZIMssA0eHy4fDWsp7-1" edge="1">
          <mxGeometry width="50" height="50" relative="1" as="geometry">
            <mxPoint x="90" y="161" as="sourcePoint" />
            <mxPoint x="199" y="101" as="targetPoint" />
          </mxGeometry>
        </mxCell>
        <mxCell id="ZVCgykRuLSJEn90-AZET-13" value="" style="endArrow=none;html=1;rounded=0;" parent="1" source="ZVCgykRuLSJEn90-AZET-1" target="LwQZIMssA0eHy4fDWsp7-2" edge="1">
          <mxGeometry width="50" height="50" relative="1" as="geometry">
            <mxPoint x="106" y="208" as="sourcePoint" />
            <mxPoint x="214.49599413553028" y="143.63738955444774" as="targetPoint" />
          </mxGeometry>
        </mxCell>
        <mxCell id="ZVCgykRuLSJEn90-AZET-14" value="" style="endArrow=none;html=1;rounded=0;" parent="1" source="ZVCgykRuLSJEn90-AZET-1" target="LwQZIMssA0eHy4fDWsp7-3" edge="1">
          <mxGeometry width="50" height="50" relative="1" as="geometry">
            <mxPoint x="395" y="321" as="sourcePoint" />
            <mxPoint x="262.26108191293224" y="171.65364387407828" as="targetPoint" />
          </mxGeometry>
        </mxCell>
        <mxCell id="ZVCgykRuLSJEn90-AZET-15" value="" style="endArrow=none;html=1;rounded=0;" parent="1" source="ZVCgykRuLSJEn90-AZET-1" target="LwQZIMssA0eHy4fDWsp7-4" edge="1">
          <mxGeometry width="50" height="50" relative="1" as="geometry">
            <mxPoint x="395" y="321" as="sourcePoint" />
            <mxPoint x="211.46120009692527" y="202.5983663198706" as="targetPoint" />
          </mxGeometry>
        </mxCell>
        <mxCell id="ZVCgykRuLSJEn90-AZET-16" value="" style="endArrow=none;html=1;rounded=0;" parent="1" source="ZVCgykRuLSJEn90-AZET-1" target="LwQZIMssA0eHy4fDWsp7-5" edge="1">
          <mxGeometry width="50" height="50" relative="1" as="geometry">
            <mxPoint x="395" y="321" as="sourcePoint" />
            <mxPoint x="186.00791424062118" y="232.61925198526956" as="targetPoint" />
          </mxGeometry>
        </mxCell>
        <mxCell id="ZVCgykRuLSJEn90-AZET-17" value="" style="endArrow=none;html=1;rounded=0;" parent="1" source="ZVCgykRuLSJEn90-AZET-1" target="LwQZIMssA0eHy4fDWsp7-6" edge="1">
          <mxGeometry width="50" height="50" relative="1" as="geometry">
            <mxPoint x="395" y="321" as="sourcePoint" />
            <mxPoint x="170.64441199919315" y="268.7649323070716" as="targetPoint" />
          </mxGeometry>
        </mxCell>
        <mxCell id="ZVCgykRuLSJEn90-AZET-26" value="" style="endArrow=none;html=1;rounded=0;" parent="1" source="ZVCgykRuLSJEn90-AZET-1" target="ZVCgykRuLSJEn90-AZET-24" edge="1">
          <mxGeometry width="50" height="50" relative="1" as="geometry">
            <mxPoint x="395" y="321" as="sourcePoint" />
            <mxPoint x="445" y="271" as="targetPoint" />
            <Array as="points">
              <mxPoint x="183" y="549" />
            </Array>
          </mxGeometry>
        </mxCell>
        <mxCell id="ZVCgykRuLSJEn90-AZET-27" value="Quản lý" style="shape=umlActor;verticalLabelPosition=bottom;verticalAlign=top;html=1;outlineConnect=0;" parent="1" vertex="1">
          <mxGeometry x="932" y="157" width="30" height="60" as="geometry" />
        </mxCell>
        <mxCell id="ZVCgykRuLSJEn90-AZET-33" value="UseCase Tổng quát quản lý chung cư" style="swimlane;whiteSpace=wrap;html=1;startSize=20;" parent="1" vertex="1">
          <mxGeometry x="120" y="8" width="790" height="581" as="geometry">
            <mxRectangle x="122" y="3" width="137" height="26" as="alternateBounds" />
          </mxGeometry>
        </mxCell>
        <mxCell id="ZVCgykRuLSJEn90-AZET-30" value="quản lý tòa" style="ellipse;whiteSpace=wrap;html=1;" parent="ZVCgykRuLSJEn90-AZET-33" vertex="1">
          <mxGeometry x="639" y="37" width="101" height="33" as="geometry" />
        </mxCell>
        <mxCell id="ZVCgykRuLSJEn90-AZET-34" value="quản lý tầng" style="ellipse;whiteSpace=wrap;html=1;" parent="ZVCgykRuLSJEn90-AZET-33" vertex="1">
          <mxGeometry x="618" y="73" width="95" height="38" as="geometry" />
        </mxCell>
        <mxCell id="ZVCgykRuLSJEn90-AZET-35" value="quản lý phòng" style="ellipse;whiteSpace=wrap;html=1;" parent="ZVCgykRuLSJEn90-AZET-33" vertex="1">
          <mxGeometry x="602" y="117" width="104" height="29" as="geometry" />
        </mxCell>
        <mxCell id="ZVCgykRuLSJEn90-AZET-36" value="quản lý hợp đồng" style="ellipse;whiteSpace=wrap;html=1;" parent="ZVCgykRuLSJEn90-AZET-33" vertex="1">
          <mxGeometry x="585" y="152" width="104" height="29" as="geometry" />
        </mxCell>
        <mxCell id="ZVCgykRuLSJEn90-AZET-37" value="quản lý điện nước" style="ellipse;whiteSpace=wrap;html=1;" parent="ZVCgykRuLSJEn90-AZET-33" vertex="1">
          <mxGeometry x="574" y="188" width="104" height="29" as="geometry" />
        </mxCell>
        <mxCell id="ZVCgykRuLSJEn90-AZET-38" value="quản lý tài khoản" style="ellipse;whiteSpace=wrap;html=1;" parent="ZVCgykRuLSJEn90-AZET-33" vertex="1">
          <mxGeometry x="570" y="228" width="104" height="29" as="geometry" />
        </mxCell>
        <mxCell id="ZVCgykRuLSJEn90-AZET-40" value="quản lý báo cáo sự cố" style="ellipse;whiteSpace=wrap;html=1;" parent="ZVCgykRuLSJEn90-AZET-33" vertex="1">
          <mxGeometry x="554" y="305" width="113" height="43" as="geometry" />
        </mxCell>
        <mxCell id="ZVCgykRuLSJEn90-AZET-41" value="quản lý tin tức" style="ellipse;whiteSpace=wrap;html=1;" parent="ZVCgykRuLSJEn90-AZET-33" vertex="1">
          <mxGeometry x="565" y="359" width="104" height="29" as="geometry" />
        </mxCell>
        <mxCell id="ZVCgykRuLSJEn90-AZET-42" value="quản lý thông báo" style="ellipse;whiteSpace=wrap;html=1;" parent="ZVCgykRuLSJEn90-AZET-33" vertex="1">
          <mxGeometry x="577" y="399" width="104" height="29" as="geometry" />
        </mxCell>
        <mxCell id="ZVCgykRuLSJEn90-AZET-39" value="quản lý hóa đơn" style="ellipse;whiteSpace=wrap;html=1;" parent="ZVCgykRuLSJEn90-AZET-33" vertex="1">
          <mxGeometry x="563" y="264" width="104" height="29" as="geometry" />
        </mxCell>
        <mxCell id="ZVCgykRuLSJEn90-AZET-43" value="xem thống kê" style="ellipse;whiteSpace=wrap;html=1;" parent="ZVCgykRuLSJEn90-AZET-33" vertex="1">
          <mxGeometry x="595" y="442" width="104" height="29" as="geometry" />
        </mxCell>
        <mxCell id="ZVCgykRuLSJEn90-AZET-24" value="Đăng xuất" style="ellipse;whiteSpace=wrap;html=1;" parent="ZVCgykRuLSJEn90-AZET-33" vertex="1">
          <mxGeometry x="290" y="521" width="90" height="49" as="geometry" />
        </mxCell>
        <mxCell id="LwQZIMssA0eHy4fDWsp7-1" value="quản lý thông tin cá nhân" style="ellipse;whiteSpace=wrap;html=1;" vertex="1" parent="ZVCgykRuLSJEn90-AZET-33">
          <mxGeometry x="69" y="73" width="104" height="35.5" as="geometry" />
        </mxCell>
        <mxCell id="LwQZIMssA0eHy4fDWsp7-2" value="xem hóa đơn" style="ellipse;whiteSpace=wrap;html=1;" vertex="1" parent="ZVCgykRuLSJEn90-AZET-33">
          <mxGeometry x="92" y="111" width="101" height="33" as="geometry" />
        </mxCell>
        <mxCell id="LwQZIMssA0eHy4fDWsp7-3" value="xem tin tức" style="ellipse;whiteSpace=wrap;html=1;" vertex="1" parent="ZVCgykRuLSJEn90-AZET-33">
          <mxGeometry x="115" y="148" width="101" height="33" as="geometry" />
        </mxCell>
        <mxCell id="LwQZIMssA0eHy4fDWsp7-4" value="xem thông báo" style="ellipse;whiteSpace=wrap;html=1;" vertex="1" parent="ZVCgykRuLSJEn90-AZET-33">
          <mxGeometry x="119" y="186" width="101" height="33" as="geometry" />
        </mxCell>
        <mxCell id="LwQZIMssA0eHy4fDWsp7-5" value="báo cáo sự cố" style="ellipse;whiteSpace=wrap;html=1;" vertex="1" parent="ZVCgykRuLSJEn90-AZET-33">
          <mxGeometry x="112" y="222" width="101" height="33" as="geometry" />
        </mxCell>
        <mxCell id="LwQZIMssA0eHy4fDWsp7-6" value="xem hợp đồng" style="ellipse;whiteSpace=wrap;html=1;" vertex="1" parent="ZVCgykRuLSJEn90-AZET-33">
          <mxGeometry x="72" y="257" width="101" height="33" as="geometry" />
        </mxCell>
        <mxCell id="LwQZIMssA0eHy4fDWsp7-7" value="Đăng nhập" style="ellipse;whiteSpace=wrap;html=1;" vertex="1" parent="ZVCgykRuLSJEn90-AZET-33">
          <mxGeometry x="339" y="168" width="101" height="33" as="geometry" />
        </mxCell>
        <mxCell id="ZVCgykRuLSJEn90-AZET-18" value="Include" style="endArrow=open;endSize=12;dashed=1;html=1;rounded=0;" parent="ZVCgykRuLSJEn90-AZET-33" source="LwQZIMssA0eHy4fDWsp7-1" target="LwQZIMssA0eHy4fDWsp7-7" edge="1">
          <mxGeometry width="160" relative="1" as="geometry">
            <mxPoint x="123.62641750094167" y="107.87944887124445" as="sourcePoint" />
            <mxPoint x="354.2399125661266" y="173.92312699705235" as="targetPoint" />
          </mxGeometry>
        </mxCell>
        <mxCell id="ZVCgykRuLSJEn90-AZET-19" value="include" style="endArrow=open;endSize=12;dashed=1;html=1;rounded=0;" parent="ZVCgykRuLSJEn90-AZET-33" source="LwQZIMssA0eHy4fDWsp7-2" target="LwQZIMssA0eHy4fDWsp7-7" edge="1">
          <mxGeometry width="160" relative="1" as="geometry">
            <mxPoint x="153.14123688222344" y="145.6561599676495" as="sourcePoint" />
            <mxPoint x="350.03863418490437" y="176.71410156854267" as="targetPoint" />
          </mxGeometry>
        </mxCell>
        <mxCell id="ZVCgykRuLSJEn90-AZET-21" value="include" style="endArrow=open;endSize=12;dashed=1;html=1;rounded=0;" parent="ZVCgykRuLSJEn90-AZET-33" source="LwQZIMssA0eHy4fDWsp7-3" target="LwQZIMssA0eHy4fDWsp7-7" edge="1">
          <mxGeometry width="160" relative="1" as="geometry">
            <mxPoint x="177.38835833181042" y="207.33886887160702" as="sourcePoint" />
            <mxPoint x="345.9444611099036" y="181.5987949470948" as="targetPoint" />
          </mxGeometry>
        </mxCell>
        <mxCell id="ZVCgykRuLSJEn90-AZET-20" value="include" style="endArrow=open;endSize=12;dashed=1;html=1;rounded=0;" parent="ZVCgykRuLSJEn90-AZET-33" source="LwQZIMssA0eHy4fDWsp7-4" target="LwQZIMssA0eHy4fDWsp7-7" edge="1">
          <mxGeometry width="160" relative="1" as="geometry">
            <mxPoint x="210" y="210" as="sourcePoint" />
            <mxPoint x="345.64892703863234" y="188.7394849785403" as="targetPoint" />
          </mxGeometry>
        </mxCell>
        <mxCell id="ZVCgykRuLSJEn90-AZET-22" value="include" style="endArrow=open;endSize=12;dashed=1;html=1;rounded=0;" parent="ZVCgykRuLSJEn90-AZET-33" source="LwQZIMssA0eHy4fDWsp7-5" target="LwQZIMssA0eHy4fDWsp7-7" edge="1">
          <mxGeometry width="160" relative="1" as="geometry">
            <mxPoint x="140.52013381059032" y="248.97427297041997" as="sourcePoint" />
            <mxPoint x="351.9735917811454" y="195.70870189293237" as="targetPoint" />
            <Array as="points">
              <mxPoint x="188" y="244" />
            </Array>
          </mxGeometry>
        </mxCell>
        <mxCell id="ZVCgykRuLSJEn90-AZET-23" value="include" style="endArrow=open;endSize=12;dashed=1;html=1;rounded=0;" parent="ZVCgykRuLSJEn90-AZET-33" source="LwQZIMssA0eHy4fDWsp7-6" target="LwQZIMssA0eHy4fDWsp7-7" edge="1">
          <mxGeometry width="160" relative="1" as="geometry">
            <mxPoint x="107.29122032698774" y="290.6423983060844" as="sourcePoint" />
            <mxPoint x="358.4653106001879" y="199.07475515136684" as="targetPoint" />
            <Array as="points">
              <mxPoint x="181" y="284" />
            </Array>
          </mxGeometry>
        </mxCell>
        <mxCell id="ZVCgykRuLSJEn90-AZET-68" value="include" style="endArrow=open;endSize=12;dashed=1;html=1;rounded=0;" parent="ZVCgykRuLSJEn90-AZET-33" source="ZVCgykRuLSJEn90-AZET-24" target="LwQZIMssA0eHy4fDWsp7-7" edge="1">
          <mxGeometry width="160" relative="1" as="geometry">
            <mxPoint x="581" y="478" as="sourcePoint" />
            <mxPoint x="383.13275153128257" y="203.92140937249314" as="targetPoint" />
            <Array as="points" />
          </mxGeometry>
        </mxCell>
        <mxCell id="ZVCgykRuLSJEn90-AZET-54" value="include" style="endArrow=open;endSize=12;dashed=1;html=1;rounded=0;" parent="ZVCgykRuLSJEn90-AZET-33" source="ZVCgykRuLSJEn90-AZET-43" target="LwQZIMssA0eHy4fDWsp7-7" edge="1">
          <mxGeometry width="160" relative="1" as="geometry">
            <mxPoint x="735" y="178" as="sourcePoint" />
            <mxPoint x="394.42548273210446" y="203.70857504742162" as="targetPoint" />
            <Array as="points">
              <mxPoint x="502" y="468" />
            </Array>
          </mxGeometry>
        </mxCell>
        <mxCell id="ZVCgykRuLSJEn90-AZET-53" value="include" style="endArrow=open;endSize=12;dashed=1;html=1;rounded=0;" parent="ZVCgykRuLSJEn90-AZET-33" source="ZVCgykRuLSJEn90-AZET-42" target="LwQZIMssA0eHy4fDWsp7-7" edge="1">
          <mxGeometry width="160" relative="1" as="geometry">
            <mxPoint x="725" y="168" as="sourcePoint" />
            <mxPoint x="396.698293083914" y="203.50003196374428" as="targetPoint" />
            <Array as="points">
              <mxPoint x="512" y="418" />
            </Array>
          </mxGeometry>
        </mxCell>
        <mxCell id="ZVCgykRuLSJEn90-AZET-52" value="include" style="endArrow=open;endSize=12;dashed=1;html=1;rounded=0;" parent="ZVCgykRuLSJEn90-AZET-33" source="ZVCgykRuLSJEn90-AZET-41" target="LwQZIMssA0eHy4fDWsp7-7" edge="1">
          <mxGeometry width="160" relative="1" as="geometry">
            <mxPoint x="715" y="158" as="sourcePoint" />
            <mxPoint x="399.9983373022858" y="203.09173469482312" as="targetPoint" />
            <Array as="points">
              <mxPoint x="520" y="366" />
            </Array>
          </mxGeometry>
        </mxCell>
        <mxCell id="ZVCgykRuLSJEn90-AZET-51" value="include" style="endArrow=open;endSize=12;dashed=1;html=1;rounded=0;" parent="ZVCgykRuLSJEn90-AZET-33" source="ZVCgykRuLSJEn90-AZET-40" target="LwQZIMssA0eHy4fDWsp7-7" edge="1">
          <mxGeometry width="160" relative="1" as="geometry">
            <mxPoint x="705" y="148" as="sourcePoint" />
            <mxPoint x="400" y="194" as="targetPoint" />
            <Array as="points">
              <mxPoint x="525" y="320" />
            </Array>
          </mxGeometry>
        </mxCell>
        <mxCell id="ZVCgykRuLSJEn90-AZET-50" value="include" style="endArrow=open;endSize=12;dashed=1;html=1;rounded=0;" parent="ZVCgykRuLSJEn90-AZET-33" source="ZVCgykRuLSJEn90-AZET-39" target="LwQZIMssA0eHy4fDWsp7-7" edge="1">
          <mxGeometry width="160" relative="1" as="geometry">
            <mxPoint x="695" y="138" as="sourcePoint" />
            <mxPoint x="410.3290298510999" y="200.88363562644986" as="targetPoint" />
            <Array as="points">
              <mxPoint x="525" y="277" />
            </Array>
          </mxGeometry>
        </mxCell>
        <mxCell id="ZVCgykRuLSJEn90-AZET-49" value="include" style="endArrow=open;endSize=12;dashed=1;html=1;rounded=0;" parent="ZVCgykRuLSJEn90-AZET-33" source="ZVCgykRuLSJEn90-AZET-38" target="LwQZIMssA0eHy4fDWsp7-7" edge="1">
          <mxGeometry width="160" relative="1" as="geometry">
            <mxPoint x="685" y="128" as="sourcePoint" />
            <mxPoint x="423.79078983155864" y="194.42372349105904" as="targetPoint" />
          </mxGeometry>
        </mxCell>
        <mxCell id="ZVCgykRuLSJEn90-AZET-48" value="include" style="endArrow=open;endSize=12;dashed=1;html=1;rounded=0;" parent="ZVCgykRuLSJEn90-AZET-33" source="ZVCgykRuLSJEn90-AZET-37" target="LwQZIMssA0eHy4fDWsp7-7" edge="1">
          <mxGeometry width="160" relative="1" as="geometry">
            <mxPoint x="675" y="118" as="sourcePoint" />
            <mxPoint x="428.4628661652255" y="188.44924152639692" as="targetPoint" />
          </mxGeometry>
        </mxCell>
        <mxCell id="ZVCgykRuLSJEn90-AZET-47" value="include" style="endArrow=open;endSize=12;dashed=1;html=1;rounded=0;" parent="ZVCgykRuLSJEn90-AZET-33" source="ZVCgykRuLSJEn90-AZET-36" target="LwQZIMssA0eHy4fDWsp7-7" edge="1">
          <mxGeometry width="160" relative="1" as="geometry">
            <mxPoint x="610" y="180" as="sourcePoint" />
            <mxPoint x="428.38844619609404" y="182.3544780890968" as="targetPoint" />
          </mxGeometry>
        </mxCell>
        <mxCell id="ZVCgykRuLSJEn90-AZET-46" value="include" style="endArrow=open;endSize=12;dashed=1;html=1;rounded=0;" parent="ZVCgykRuLSJEn90-AZET-33" source="ZVCgykRuLSJEn90-AZET-35" target="LwQZIMssA0eHy4fDWsp7-7" edge="1">
          <mxGeometry width="160" relative="1" as="geometry">
            <mxPoint x="655" y="98" as="sourcePoint" />
            <mxPoint x="425.1688235167471" y="177.78046265953412" as="targetPoint" />
          </mxGeometry>
        </mxCell>
        <mxCell id="ZVCgykRuLSJEn90-AZET-45" value="include" style="endArrow=open;endSize=12;dashed=1;html=1;rounded=0;" parent="ZVCgykRuLSJEn90-AZET-33" source="ZVCgykRuLSJEn90-AZET-34" target="LwQZIMssA0eHy4fDWsp7-7" edge="1">
          <mxGeometry width="160" relative="1" as="geometry">
            <mxPoint x="645" y="88" as="sourcePoint" />
            <mxPoint x="420.44720676094767" y="174.31082651522274" as="targetPoint" />
          </mxGeometry>
        </mxCell>
        <mxCell id="ZVCgykRuLSJEn90-AZET-44" value="include" style="endArrow=open;endSize=12;dashed=1;html=1;rounded=0;" parent="ZVCgykRuLSJEn90-AZET-33" source="ZVCgykRuLSJEn90-AZET-30" target="LwQZIMssA0eHy4fDWsp7-7" edge="1">
          <mxGeometry width="160" relative="1" as="geometry">
            <mxPoint x="314" y="290" as="sourcePoint" />
            <mxPoint x="416.8129901281786" y="172.46915663271648" as="targetPoint" />
          </mxGeometry>
        </mxCell>
        <mxCell id="ZVCgykRuLSJEn90-AZET-56" value="" style="endArrow=none;html=1;rounded=0;" parent="1" source="ZVCgykRuLSJEn90-AZET-30" target="ZVCgykRuLSJEn90-AZET-27" edge="1">
          <mxGeometry width="50" height="50" relative="1" as="geometry">
            <mxPoint x="515" y="307" as="sourcePoint" />
            <mxPoint x="565" y="257" as="targetPoint" />
          </mxGeometry>
        </mxCell>
        <mxCell id="ZVCgykRuLSJEn90-AZET-57" value="" style="endArrow=none;html=1;rounded=0;" parent="1" source="ZVCgykRuLSJEn90-AZET-34" target="ZVCgykRuLSJEn90-AZET-27" edge="1">
          <mxGeometry width="50" height="50" relative="1" as="geometry">
            <mxPoint x="838" y="82" as="sourcePoint" />
            <mxPoint x="942" y="183" as="targetPoint" />
          </mxGeometry>
        </mxCell>
        <mxCell id="ZVCgykRuLSJEn90-AZET-58" value="" style="endArrow=none;html=1;rounded=0;" parent="1" source="ZVCgykRuLSJEn90-AZET-35" target="ZVCgykRuLSJEn90-AZET-27" edge="1">
          <mxGeometry width="50" height="50" relative="1" as="geometry">
            <mxPoint x="848" y="92" as="sourcePoint" />
            <mxPoint x="952" y="193" as="targetPoint" />
          </mxGeometry>
        </mxCell>
        <mxCell id="ZVCgykRuLSJEn90-AZET-59" value="" style="endArrow=none;html=1;rounded=0;" parent="1" source="ZVCgykRuLSJEn90-AZET-36" target="ZVCgykRuLSJEn90-AZET-27" edge="1">
          <mxGeometry width="50" height="50" relative="1" as="geometry">
            <mxPoint x="858" y="102" as="sourcePoint" />
            <mxPoint x="962" y="203" as="targetPoint" />
          </mxGeometry>
        </mxCell>
        <mxCell id="ZVCgykRuLSJEn90-AZET-60" value="" style="endArrow=none;html=1;rounded=0;" parent="1" source="ZVCgykRuLSJEn90-AZET-37" target="ZVCgykRuLSJEn90-AZET-27" edge="1">
          <mxGeometry width="50" height="50" relative="1" as="geometry">
            <mxPoint x="868" y="112" as="sourcePoint" />
            <mxPoint x="972" y="213" as="targetPoint" />
          </mxGeometry>
        </mxCell>
        <mxCell id="ZVCgykRuLSJEn90-AZET-61" value="" style="endArrow=none;html=1;rounded=0;" parent="1" source="ZVCgykRuLSJEn90-AZET-38" target="ZVCgykRuLSJEn90-AZET-27" edge="1">
          <mxGeometry width="50" height="50" relative="1" as="geometry">
            <mxPoint x="878" y="122" as="sourcePoint" />
            <mxPoint x="982" y="223" as="targetPoint" />
          </mxGeometry>
        </mxCell>
        <mxCell id="ZVCgykRuLSJEn90-AZET-62" value="" style="endArrow=none;html=1;rounded=0;" parent="1" source="ZVCgykRuLSJEn90-AZET-39" target="ZVCgykRuLSJEn90-AZET-27" edge="1">
          <mxGeometry width="50" height="50" relative="1" as="geometry">
            <mxPoint x="888" y="132" as="sourcePoint" />
            <mxPoint x="992" y="233" as="targetPoint" />
          </mxGeometry>
        </mxCell>
        <mxCell id="ZVCgykRuLSJEn90-AZET-63" value="" style="endArrow=none;html=1;rounded=0;" parent="1" source="ZVCgykRuLSJEn90-AZET-40" target="ZVCgykRuLSJEn90-AZET-27" edge="1">
          <mxGeometry width="50" height="50" relative="1" as="geometry">
            <mxPoint x="898" y="142" as="sourcePoint" />
            <mxPoint x="1002" y="243" as="targetPoint" />
          </mxGeometry>
        </mxCell>
        <mxCell id="ZVCgykRuLSJEn90-AZET-64" value="" style="endArrow=none;html=1;rounded=0;" parent="1" source="ZVCgykRuLSJEn90-AZET-41" target="ZVCgykRuLSJEn90-AZET-27" edge="1">
          <mxGeometry width="50" height="50" relative="1" as="geometry">
            <mxPoint x="908" y="152" as="sourcePoint" />
            <mxPoint x="1012" y="253" as="targetPoint" />
            <Array as="points">
              <mxPoint x="814" y="370" />
            </Array>
          </mxGeometry>
        </mxCell>
        <mxCell id="ZVCgykRuLSJEn90-AZET-65" value="" style="endArrow=none;html=1;rounded=0;" parent="1" source="ZVCgykRuLSJEn90-AZET-42" target="ZVCgykRuLSJEn90-AZET-27" edge="1">
          <mxGeometry width="50" height="50" relative="1" as="geometry">
            <mxPoint x="918" y="162" as="sourcePoint" />
            <mxPoint x="1022" y="263" as="targetPoint" />
            <Array as="points">
              <mxPoint x="822" y="409" />
            </Array>
          </mxGeometry>
        </mxCell>
        <mxCell id="ZVCgykRuLSJEn90-AZET-66" value="" style="endArrow=none;html=1;rounded=0;" parent="1" source="ZVCgykRuLSJEn90-AZET-43" target="ZVCgykRuLSJEn90-AZET-27" edge="1">
          <mxGeometry width="50" height="50" relative="1" as="geometry">
            <mxPoint x="928" y="172" as="sourcePoint" />
            <mxPoint x="1032" y="273" as="targetPoint" />
            <Array as="points">
              <mxPoint x="840" y="451" />
            </Array>
          </mxGeometry>
        </mxCell>
        <mxCell id="ZVCgykRuLSJEn90-AZET-67" value="" style="endArrow=none;html=1;rounded=0;" parent="1" source="ZVCgykRuLSJEn90-AZET-27" target="ZVCgykRuLSJEn90-AZET-24" edge="1">
          <mxGeometry width="50" height="50" relative="1" as="geometry">
            <mxPoint x="938" y="182" as="sourcePoint" />
            <mxPoint x="1042" y="283" as="targetPoint" />
            <Array as="points">
              <mxPoint x="881" y="464" />
            </Array>
          </mxGeometry>
        </mxCell>
        <mxCell id="ZVCgykRuLSJEn90-AZET-70" value="Nhân viên điện nước" style="shape=umlActor;verticalLabelPosition=bottom;verticalAlign=top;html=1;" parent="1" vertex="1">
          <mxGeometry x="962" y="450" width="30" height="60" as="geometry" />
        </mxCell>
        <mxCell id="ZVCgykRuLSJEn90-AZET-73" value="" style="endArrow=none;html=1;rounded=0;" parent="1" source="ZVCgykRuLSJEn90-AZET-37" target="ZVCgykRuLSJEn90-AZET-70" edge="1">
          <mxGeometry width="50" height="50" relative="1" as="geometry">
            <mxPoint x="828" y="464" as="sourcePoint" />
            <mxPoint x="945" y="227" as="targetPoint" />
            <Array as="points">
              <mxPoint x="821" y="210" />
            </Array>
          </mxGeometry>
        </mxCell>
        <mxCell id="ZVCgykRuLSJEn90-AZET-74" value="" style="endArrow=none;html=1;rounded=0;" parent="1" source="ZVCgykRuLSJEn90-AZET-24" target="ZVCgykRuLSJEn90-AZET-70" edge="1">
          <mxGeometry width="50" height="50" relative="1" as="geometry">
            <mxPoint x="838" y="474" as="sourcePoint" />
            <mxPoint x="955" y="237" as="targetPoint" />
            <Array as="points" />
          </mxGeometry>
        </mxCell>
      </root>
    </mxGraphModel>
  </diagram>
</mxfile>
